<?xml version="1.0" encoding="UTF-8"?>
<svg id="Capa_1" data-name="Capa 1" xmlns="http://www.w3.org/2000/svg" viewBox="0 0 120 120">
  <defs>
    <style>
      .cls-1 {
        fill: none;
        stroke: #910a67;
        stroke-miterlimit: 10;
        stroke-width: 3.5px;
      }
      path {
        fill: #910a67;
      }
    </style>
  </defs>
  <path class="cls-1" d="M83.09,10h-46.19c-3.57,0-6.87,1.91-8.66,5L5.15,55c-1.79,3.09-1.79,6.91,0,10l23.09,40c1.79,3.09,5.09,5,8.66,5h46.19c3.57,0,6.87-1.91,8.66-5l23.09-40c1.79-3.09,1.79-6.91,0-10l-23.09-40c-1.79-3.09-5.09-5-8.66-5Z"/>
  <path d="M84.95,56.07c-.57-3.76-2.78-6.35-6.2-7.91-.53-.24-.8-.52-.94-1.1-.88-3.64-3.15-6.07-6.66-7.34-1.16-.42-2.38-.55-3.61-.46-.47.04-.86-.05-1.18-.43-.31-.38-.73-.65-1.11-.96-2.96-2.33-6.34-3.29-10.04-2.71-5.42.85-9.01,3.98-10.78,9.17-.15.43-.35.62-.78.74-3.8,1.04-6.47,3.38-8.02,7-.45,1.05-.65,2.14-.73,3.26v2.45c.14.4.05.84.16,1.25,1.19,4.52,3.99,7.49,8.5,8.8,1.15.34,2.34.4,3.54.35.38-.02.5.12.41.49-.13.59-.13,1.19-.06,1.8.16,1.39.88,2.5,1.66,3.6,1.85,2.62,3.69,5.25,5.51,7.9,1.23,1.79,2.77,3,5.05,3.03.97.01,1.9-.07,2.8-.49,1.08-.49,1.91-1.25,2.57-2.2,2.03-2.93,4.08-5.86,6.13-8.78,1.05-1.49,1.58-3.1,1.22-4.93-.07-.35.1-.43.39-.42.65,0,1.3,0,1.96,0,2.84.03,5.27-1.02,7.26-2.99,2.55-2.51,3.47-5.63,2.94-9.13ZM67.37,70.57c-2.1,3-4.19,6.01-6.29,9.01-.66.94-1.6.93-2.27-.01-2.09-2.99-4.17-5.98-6.26-8.96-.32-.46-.48-.94-.21-1.46.28-.54.78-.69,1.36-.69.88.01,1.76-.03,2.64.02.5.03.57-.14.57-.59-.02-2.64-.01-5.28-.01-7.92,0-1.08.45-1.53,1.55-1.53,1.04,0,2.09,0,3.13,0,.96,0,1.42.48,1.43,1.45,0,1.35,0,2.7,0,4.06,0,1.37.01,2.74,0,4.11,0,.35.1.43.44.42.94-.02,1.89,0,2.84,0,.54,0,1,.16,1.27.66.28.52.15,1-.17,1.46Z"/>
</svg>