<?xml version="1.0" encoding="UTF-8"?>
<svg id="Capa_1" data-name="Capa 1" xmlns="http://www.w3.org/2000/svg" viewBox="0 0 120 120">
  <defs>
    <style>
      .cls-1 {
        fill: none;
        stroke: #000;
        stroke-miterlimit: 10;
        stroke-width: 2.83px;
      }
    </style>
  </defs>
  <path class="cls-1" d="M83.09,10h-46.19c-3.57,0-6.87,1.91-8.66,5L5.15,55c-1.79,3.09-1.79,6.91,0,10l23.09,40c1.79,3.09,5.09,5,8.66,5h46.19c3.57,0,6.87-1.91,8.66-5l23.09-40c1.79-3.09,1.79-6.91,0-10l-23.09-40c-1.79-3.09-5.09-5-8.66-5Z"/>
  <g>
    <path d="M91.99,51.01c-.29.9-.67,1.73-1.46,2.33-1.32.99-3.18,1.02-4.45-.03-1.19-.97-2.25-2.1-3.47-3.05-5.45-4.3-11.61-6.92-18.53-7.63-11.04-1.13-20.69,2.07-28.9,9.55-.75.68-1.41,1.47-2.45,1.76-1.55.43-3.21-.15-4.1-1.49-.89-1.33-.84-3.14.25-4.35,1.57-1.76,3.4-3.25,5.3-4.64,5.22-3.84,11.01-6.39,17.36-7.63,4.61-.9,9.25-1.06,13.92-.47,9.06,1.14,16.96,4.8,23.77,10.85.56.5,1.08,1.04,1.63,1.55.6.55.85,1.29,1.14,2.01v1.25Z"/>
    <path d="M60.23,47.14c8.01,0,15.62,2.97,21.95,9.14,1.55,1.51,1.62,3.73.2,5.26-1.34,1.45-3.58,1.55-5.16.15-1.59-1.4-3.19-2.79-5.04-3.86-2.8-1.63-5.8-2.67-9.01-3.07-5.94-.74-11.44.51-16.47,3.76-1.37.88-2.57,1.97-3.78,3.06-1.37,1.24-2.95,1.43-4.42.62-1.94-1.06-2.52-3.73-1.1-5.42,1.5-1.78,3.35-3.17,5.28-4.45,5.08-3.34,10.67-5.03,17.54-5.2Z"/>
    <path d="M70.94,71.26c-.93.01-1.82-.49-2.59-1.23-1-.96-2.13-1.72-3.39-2.3-4.23-1.95-9.49-1.17-12.93,1.97-.81.74-1.62,1.44-2.78,1.54-1.63.13-3.06-.7-3.73-2.17-.62-1.35-.31-3.04.82-4.14,3.09-3,6.74-4.89,11.04-5.43,6.25-.78,11.66,1.03,16.23,5.36,1.16,1.1,1.52,2.71.94,4.11-.58,1.39-1.92,2.29-3.6,2.29Z"/>
    <path d="M66.28,78.7c.02,3.46-2.75,6.26-6.23,6.3-3.47.04-6.32-2.79-6.32-6.27,0-3.49,2.85-6.34,6.3-6.3,3.49.04,6.24,2.8,6.26,6.28Z"/>
  </g>
</svg>