<?xml version="1.0" encoding="UTF-8"?>
<svg id="Capa_1" data-name="Capa 1" xmlns="http://www.w3.org/2000/svg" viewBox="0 0 120 120">
  <defs>
    <style>
      .cls-1 {
        fill: none;
        stroke: #910a67;
        stroke-miterlimit: 10;
        stroke-width: 3.5px;
      }
      g > path {
        fill: #910a67;
      }
    </style>
  </defs>
  <path class="cls-1" d="M83.09,10h-46.19c-3.57,0-6.87,1.91-8.66,5L5.15,55c-1.79,3.09-1.79,6.91,0,10l23.09,40c1.79,3.09,5.09,5,8.66,5h46.19c3.57,0,6.87-1.91,8.66-5l23.09-40c1.79-3.09,1.79-6.91,0-10l-23.09-40c-1.79-3.09-5.09-5-8.66-5Z"/>
  <g>
    <path d="M40.08,85c-.2-.18-.48-.25-.67-.45-.54-.58-.56-1.42.01-2.03,5.93-6.35,9.31-13.95,11.07-22.36.58-2.79.87-5.62.99-8.47.01-.3-.06-.39-.36-.38-1.16.02-2.31,0-3.47.01-.69,0-1.21-.26-1.49-.89-.28-.64-.1-1.19.37-1.69,4.1-4.38,8.2-8.77,12.3-13.16.72-.77,1.61-.78,2.33,0,4.09,4.37,8.18,8.75,12.27,13.12.48.51.69,1.07.4,1.73-.29.65-.84.9-1.54.89-1.14-.02-2.28,0-3.42-.01-.3,0-.38.08-.37.38.45,10.29,3.41,19.72,9.64,28.02.65.87,1.36,1.7,2.11,2.49,1.08,1.13.97,2.02-.35,2.8h-9.96c-.14-.14-.12-.33-.13-.51-.2-3.51-1.85-6.17-4.78-8.05-.86-.55-.86-.52-.32-1.37,1.24-1.95,1.18-4.34-.19-6.24-1.5-2.09-3.93-2.87-6.36-2.03-2.08.72-3.31,2.24-3.7,4.4-.28,1.53.09,2.93,1.01,4.19.35.48.33.53-.21.84-2.86,1.68-4.54,4.16-5.07,7.43-.07.44.09.92-.17,1.33h-9.96Z"/>
    <path d="M52.96,85c-.06-2.11.73-3.89,2.26-5.28,2.18-1.98,4.74-2.48,7.46-1.33,2.76,1.17,4.18,3.38,4.37,6.38,0,.08-.02.16-.03.24h-14.06Z"/>
    <path d="M62.82,72.1c0,1.53-1.25,2.79-2.79,2.8-1.55.02-2.83-1.26-2.83-2.81,0-1.55,1.29-2.81,2.84-2.8,1.53.01,2.78,1.28,2.78,2.81Z"/>
  </g>
</svg>