<?xml version="1.0" encoding="UTF-8"?>
<svg id="Capa_1" data-name="Capa 1" xmlns="http://www.w3.org/2000/svg" viewBox="0 0 120 120">
  <defs>
    <style>
      .cls-1 {
        fill: none;
        stroke: #000;
        stroke-miterlimit: 10;
        stroke-width: 2.83px;
      }
    </style>
  </defs>
  <path class="cls-1" d="M83.09,10h-46.19c-3.57,0-6.87,1.91-8.66,5L5.15,55c-1.79,3.09-1.79,6.91,0,10l23.09,40c1.79,3.09,5.09,5,8.66,5h46.19c3.57,0,6.87-1.91,8.66-5l23.09-40c1.79-3.09,1.79-6.91,0-10l-23.09-40c-1.79-3.09-5.09-5-8.66-5Z"/>
  <g>
    <path d="M34.99,49.56c.22-.64.68-.99,1.31-1.18.84-.26,1.65-.58,2.48-.87.26-.09.45-.23.61-.45.58-.77,1.16-1.53,1.75-2.28.69-.88,1.75-.89,2.44-.01.59.75,1.18,1.51,1.75,2.28.17.23.38.37.65.47.86.29,1.72.59,2.57.9,1.2.43,1.52,1.41.81,2.47-.24.35-.44.73-.72,1.04-.92.99-1.23,2.16-1.13,3.48.03.44,0,.88-.02,1.32-.03,1.14-.89,1.79-1.99,1.48-.91-.26-1.81-.53-2.7-.81-.29-.09-.55-.1-.85,0-.88.28-1.77.53-2.66.79-1.18.34-2.03-.29-2.06-1.53-.02-.94-.06-1.89-.07-2.83,0-.24-.07-.43-.21-.63-.66-.98-1.39-1.91-1.97-2.95v-.68Z"/>
    <path d="M60.19,35c.56.18.97.53,1.29,1.02.2.3.47.55.64.86.63,1.11,1.59,1.73,2.81,2.03.49.12.96.31,1.42.49.98.39,1.3,1.39.72,2.27-.55.83-1.11,1.64-1.68,2.45-.15.21-.21.42-.21.68-.01.96-.03,1.92-.07,2.88-.05,1.16-.9,1.75-2.01,1.43-.66-.19-1.33-.34-1.96-.59-.78-.31-1.52-.3-2.3,0-.63.24-1.3.4-1.96.59-1.11.32-1.95-.28-2.01-1.44-.04-.96-.06-1.92-.07-2.88,0-.26-.07-.47-.21-.68-.55-.78-1.09-1.57-1.63-2.37-.66-.98-.34-1.98.76-2.38,1.01-.36,2.15-.53,2.98-1.14.83-.6,1.37-1.63,2.01-2.49.26-.36.63-.53.99-.75h.49Z"/>
    <path d="M59.58,84.98c-1.63-.05-3.65.1-5.66-.06-3.11-.26-5.79-3.07-5.94-6.19-.24-4.76,2.46-9.29,6.82-11.36.42-.2.39-.29.12-.59-1.88-2.13-2.2-5.2-.84-7.68,1.33-2.41,4.15-3.85,6.75-3.45,2.98.46,5.25,2.54,5.79,5.36.42,2.18-.11,4.13-1.57,5.8-.27.31-.22.36.12.54,4.37,2.27,6.75,5.85,6.85,10.8.08,3.81-2.95,6.81-6.77,6.83-1.76,0-3.51,0-5.66,0Z"/>
    <path d="M81.17,58.28c-.52-.05-1.12-.23-1.68-.47-1.25-.53-2.46-.54-3.7,0-.41.18-.87.27-1.3.39-1.1.3-1.96-.34-1.99-1.47-.02-.8-.07-1.6-.06-2.39.01-.6-.15-1.09-.51-1.57-.49-.64-.93-1.33-1.38-2.01-.6-.91-.27-1.91.75-2.29.7-.26,1.39-.55,2.11-.74.72-.19,1.23-.57,1.64-1.18.42-.62.89-1.2,1.36-1.79.69-.88,1.75-.87,2.44.01.6.77,1.2,1.54,1.78,2.32.14.19.31.31.53.39.92.32,1.84.64,2.75.98,1.09.4,1.4,1.39.76,2.35-.53.78-1.06,1.56-1.61,2.33-.17.24-.24.48-.24.77-.01.96-.04,1.92-.08,2.88-.03.89-.64,1.49-1.58,1.49Z"/>
  </g>
</svg>