<?xml version="1.0" encoding="UTF-8"?>
<svg id="Capa_1" data-name="Capa 1" xmlns="http://www.w3.org/2000/svg" viewBox="0 0 120 120">
  <defs>
    <style>
      .cls-1 {
        fill: none;
        stroke: #000;
        stroke-miterlimit: 10;
        stroke-width: 2.83px;
      }
    </style>
  </defs>
  <path class="cls-1" d="M83.09,10h-46.19c-3.57,0-6.87,1.91-8.66,5L5.15,55c-1.79,3.09-1.79,6.91,0,10l23.09,40c1.79,3.09,5.09,5,8.66,5h46.19c3.57,0,6.87-1.91,8.66-5l23.09-40c1.79-3.09,1.79-6.91,0-10l-23.09-40c-1.79-3.09-5.09-5-8.66-5Z"/>
  <path d="M83.5,35c-7.83,0-15.65,0-23.48,0s-15.74,0-23.61,0c-1.09,0-1.41.31-1.41,1.38,0,10.79,0,21.59,0,32.38,0,1.08.31,1.39,1.4,1.39,2.46,0,4.93.02,7.39-.01.58,0,.69.11.53.69-1.13,4.16-2.22,8.34-3.33,12.51-.31,1.16.07,1.65,1.27,1.65,1.59,0,3.18,0,4.76,0,.88,0,1.14-.2,1.37-1.04.42-1.55.84-3.1,1.25-4.65.1-.38.25-.54.68-.54,6.44.02,12.89.02,19.33,0,.43,0,.59.15.69.53.41,1.58.85,3.15,1.25,4.72.18.68.58.99,1.29.98,1.59-.02,3.18,0,4.76,0,1.3,0,1.66-.47,1.32-1.71-1.13-4.19-2.25-8.38-3.4-12.56-.14-.5-.03-.57.44-.57,2.51.02,5.02.01,7.53,0,1.17,0,1.46-.29,1.46-1.48,0-10.73,0-21.45,0-32.18,0-1.22-.28-1.5-1.49-1.5ZM68.58,76.77c-5.82,0-11.64,0-17.46,0-.77,0-.77,0-.56-.78.46-1.75.92-3.51,1.36-5.27.11-.43.27-.58.73-.58,4.9.02,9.8.01,14.7,0,.28,0,.53-.02.63.35.54,2.06,1.1,4.12,1.68,6.26h-1.07ZM75.62,51.37c0,.6-.46,1.02-1,1.01-.54-.01-.95-.44-.96-1.05-.02-1.12,0-2.24,0-3.38-.31.03-.42.26-.57.41-2.61,2.6-5.21,5.21-7.82,7.81-.82.82-1.25.81-2.07,0-1.99-1.99-3.98-3.96-5.95-5.97-.36-.36-.53-.37-.89,0-3.3,3.34-6.63,6.65-9.95,9.97-.16.16-.32.35-.51.46-.45.27-.89.22-1.25-.17-.36-.39-.36-.83-.07-1.26.11-.17.28-.3.43-.45,3.6-3.6,7.19-7.2,10.79-10.79.8-.8,1.22-.8,2.02,0,2.13,2.13,4.26,4.27,6.36,6.38,2.64-2.65,5.26-5.26,7.88-7.89-.14-.16-.36-.05-.54-.06-.97-.02-1.93,0-2.9-.02-.61-.02-.94-.4-.95-.97-.01-.54.31-.97.87-.98,2.07-.03,4.14-.03,6.21,0,.55,0,.88.4.88.96.01,2,.02,4.01,0,6.01Z"/>
</svg>